<mxfile host="app.diagrams.net" modified="2023-07-17T04:51:16.121Z" agent="Mozilla/5.0 (Windows NT 10.0; Win64; x64) AppleWebKit/537.36 (KHTML, like Gecko) Chrome/114.0.0.0 Safari/537.36" version="21.3.7" etag="tQT0mqdoz522HEfsO9zJ" type="github">
  <diagram name="페이지-1" id="6wJVBL19AWCtUM26rnOI">
    <mxGraphModel>
      <root>
        <mxCell id="0" />
        <mxCell id="1" parent="0" />
      </root>
    </mxGraphModel>
  </diagram>
</mxfile>
